<mxfile host="app.diagrams.net" agent="Mozilla/5.0 (Windows NT 10.0; Win64; x64) AppleWebKit/537.36 (KHTML, like Gecko) Chrome/135.0.0.0 Safari/537.36" version="26.2.14">
  <diagram name="Page-1" id="ABr5xjAA7cEfZj-Z7aBG">
    <mxGraphModel dx="3677" dy="1288" grid="1" gridSize="10" guides="1" tooltips="1" connect="1" arrows="1" fold="1" page="1" pageScale="1" pageWidth="850" pageHeight="1100" math="0" shadow="0">
      <root>
        <mxCell id="0" />
        <mxCell id="1" parent="0" />
        <mxCell id="zhDVDcsRZHDaqXmxdzjK-7" style="edgeStyle=orthogonalEdgeStyle;rounded=0;orthogonalLoop=1;jettySize=auto;html=1;exitX=0.5;exitY=0;exitDx=0;exitDy=0;entryX=0.5;entryY=1;entryDx=0;entryDy=0;fontSize=14;" parent="1" source="zhDVDcsRZHDaqXmxdzjK-1" target="zhDVDcsRZHDaqXmxdzjK-6" edge="1">
          <mxGeometry relative="1" as="geometry" />
        </mxCell>
        <mxCell id="zhDVDcsRZHDaqXmxdzjK-15" style="edgeStyle=orthogonalEdgeStyle;rounded=0;orthogonalLoop=1;jettySize=auto;html=1;exitX=1;exitY=0.25;exitDx=0;exitDy=0;entryX=0;entryY=0.5;entryDx=0;entryDy=0;fontSize=14;" parent="1" source="zhDVDcsRZHDaqXmxdzjK-1" target="zhDVDcsRZHDaqXmxdzjK-12" edge="1">
          <mxGeometry relative="1" as="geometry" />
        </mxCell>
        <mxCell id="zhDVDcsRZHDaqXmxdzjK-17" style="edgeStyle=orthogonalEdgeStyle;rounded=0;orthogonalLoop=1;jettySize=auto;html=1;exitX=0;exitY=0.5;exitDx=0;exitDy=0;entryX=1;entryY=0.5;entryDx=0;entryDy=0;fontSize=14;" parent="1" source="zhDVDcsRZHDaqXmxdzjK-1" target="zhDVDcsRZHDaqXmxdzjK-11" edge="1">
          <mxGeometry relative="1" as="geometry" />
        </mxCell>
        <mxCell id="zhDVDcsRZHDaqXmxdzjK-120" style="edgeStyle=none;shape=link;rounded=0;orthogonalLoop=1;jettySize=auto;html=1;exitX=0;exitY=0.5;exitDx=0;exitDy=0;entryX=0.5;entryY=1;entryDx=0;entryDy=0;fontSize=14;" parent="1" source="zhDVDcsRZHDaqXmxdzjK-119" target="zhDVDcsRZHDaqXmxdzjK-35" edge="1">
          <mxGeometry relative="1" as="geometry">
            <mxPoint x="-725" y="952.5" as="sourcePoint" />
            <mxPoint x="-905" y="907.5" as="targetPoint" />
          </mxGeometry>
        </mxCell>
        <mxCell id="HmJOOrPuTASxMkyBcTtv-13" style="edgeStyle=orthogonalEdgeStyle;rounded=0;orthogonalLoop=1;jettySize=auto;html=1;exitX=1;exitY=1;exitDx=0;exitDy=0;entryX=0;entryY=0;entryDx=0;entryDy=0;fontSize=14;" edge="1" parent="1" source="zhDVDcsRZHDaqXmxdzjK-1" target="zhDVDcsRZHDaqXmxdzjK-9">
          <mxGeometry relative="1" as="geometry">
            <Array as="points">
              <mxPoint x="15" y="1030" />
              <mxPoint x="35" y="1030" />
              <mxPoint x="35" y="1020" />
              <mxPoint x="54" y="1020" />
            </Array>
          </mxGeometry>
        </mxCell>
        <mxCell id="zhDVDcsRZHDaqXmxdzjK-1" value="Customer" style="whiteSpace=wrap;html=1;align=center;fontSize=14;" parent="1" vertex="1">
          <mxGeometry x="-85" y="980" width="100" height="40" as="geometry" />
        </mxCell>
        <mxCell id="zhDVDcsRZHDaqXmxdzjK-6" value="&lt;u&gt;email&lt;/u&gt;" style="ellipse;whiteSpace=wrap;html=1;align=center;fontSize=14;" parent="1" vertex="1">
          <mxGeometry x="-85" y="910" width="100" height="40" as="geometry" />
        </mxCell>
        <mxCell id="zhDVDcsRZHDaqXmxdzjK-9" value="&lt;u&gt;phone&lt;/u&gt;" style="ellipse;whiteSpace=wrap;html=1;align=center;fontSize=14;" parent="1" vertex="1">
          <mxGeometry x="40" y="1026" width="100" height="45" as="geometry" />
        </mxCell>
        <mxCell id="zhDVDcsRZHDaqXmxdzjK-11" value="&lt;u&gt;license_number&lt;/u&gt;" style="ellipse;whiteSpace=wrap;html=1;align=center;fontSize=14;" parent="1" vertex="1">
          <mxGeometry x="-230" y="980" width="125" height="40" as="geometry" />
        </mxCell>
        <mxCell id="zhDVDcsRZHDaqXmxdzjK-160" style="rounded=0;orthogonalLoop=1;jettySize=auto;html=1;exitX=1;exitY=0.5;exitDx=0;exitDy=0;entryX=0;entryY=0.5;entryDx=0;entryDy=0;fontSize=14;" parent="1" source="zhDVDcsRZHDaqXmxdzjK-12" target="zhDVDcsRZHDaqXmxdzjK-158" edge="1">
          <mxGeometry relative="1" as="geometry" />
        </mxCell>
        <mxCell id="zhDVDcsRZHDaqXmxdzjK-12" value="name" style="ellipse;whiteSpace=wrap;html=1;align=center;fontSize=14;" parent="1" vertex="1">
          <mxGeometry x="45" y="970" width="100" height="40" as="geometry" />
        </mxCell>
        <mxCell id="zhDVDcsRZHDaqXmxdzjK-14" style="edgeStyle=orthogonalEdgeStyle;rounded=0;orthogonalLoop=1;jettySize=auto;html=1;exitX=0.75;exitY=0;exitDx=0;exitDy=0;entryX=0.07;entryY=0.8;entryDx=0;entryDy=0;entryPerimeter=0;fontSize=14;" parent="1" source="zhDVDcsRZHDaqXmxdzjK-1" edge="1">
          <mxGeometry relative="1" as="geometry">
            <mxPoint x="32" y="942" as="targetPoint" />
          </mxGeometry>
        </mxCell>
        <mxCell id="zhDVDcsRZHDaqXmxdzjK-20" value="Customer_id" style="ellipse;whiteSpace=wrap;html=1;align=center;fontStyle=4;fontSize=14;" parent="1" vertex="1">
          <mxGeometry x="25" y="910" width="100" height="40" as="geometry" />
        </mxCell>
        <mxCell id="zhDVDcsRZHDaqXmxdzjK-22" style="edgeStyle=orthogonalEdgeStyle;rounded=0;orthogonalLoop=1;jettySize=auto;html=1;exitX=1;exitY=0.25;exitDx=0;exitDy=0;entryX=0;entryY=0.5;entryDx=0;entryDy=0;fontSize=14;" parent="1" source="zhDVDcsRZHDaqXmxdzjK-24" target="zhDVDcsRZHDaqXmxdzjK-28" edge="1">
          <mxGeometry relative="1" as="geometry" />
        </mxCell>
        <mxCell id="zhDVDcsRZHDaqXmxdzjK-149" style="edgeStyle=none;rounded=0;orthogonalLoop=1;jettySize=auto;html=1;exitX=0.25;exitY=1;exitDx=0;exitDy=0;entryX=0.5;entryY=0;entryDx=0;entryDy=0;fontSize=14;" parent="1" source="zhDVDcsRZHDaqXmxdzjK-24" target="zhDVDcsRZHDaqXmxdzjK-27" edge="1">
          <mxGeometry relative="1" as="geometry" />
        </mxCell>
        <mxCell id="HmJOOrPuTASxMkyBcTtv-45" style="edgeStyle=orthogonalEdgeStyle;rounded=0;orthogonalLoop=1;jettySize=auto;html=1;entryX=1;entryY=0.5;entryDx=0;entryDy=0;" edge="1" parent="1" source="zhDVDcsRZHDaqXmxdzjK-24" target="HmJOOrPuTASxMkyBcTtv-34">
          <mxGeometry relative="1" as="geometry" />
        </mxCell>
        <mxCell id="HmJOOrPuTASxMkyBcTtv-47" style="edgeStyle=orthogonalEdgeStyle;rounded=0;orthogonalLoop=1;jettySize=auto;html=1;exitX=0.75;exitY=0;exitDx=0;exitDy=0;entryX=0;entryY=1;entryDx=0;entryDy=0;" edge="1" parent="1" source="zhDVDcsRZHDaqXmxdzjK-24" target="zhDVDcsRZHDaqXmxdzjK-25">
          <mxGeometry relative="1" as="geometry">
            <Array as="points">
              <mxPoint x="-690" y="1180" />
              <mxPoint x="-690" y="1140" />
              <mxPoint x="-685" y="1140" />
            </Array>
          </mxGeometry>
        </mxCell>
        <mxCell id="HmJOOrPuTASxMkyBcTtv-48" style="edgeStyle=orthogonalEdgeStyle;rounded=0;orthogonalLoop=1;jettySize=auto;html=1;exitX=0.5;exitY=0;exitDx=0;exitDy=0;entryX=1;entryY=1;entryDx=0;entryDy=0;" edge="1" parent="1" source="zhDVDcsRZHDaqXmxdzjK-24" target="HmJOOrPuTASxMkyBcTtv-32">
          <mxGeometry relative="1" as="geometry" />
        </mxCell>
        <mxCell id="HmJOOrPuTASxMkyBcTtv-49" style="edgeStyle=orthogonalEdgeStyle;rounded=0;orthogonalLoop=1;jettySize=auto;html=1;exitX=0.25;exitY=1;exitDx=0;exitDy=0;entryX=1;entryY=0;entryDx=0;entryDy=0;" edge="1" parent="1" source="zhDVDcsRZHDaqXmxdzjK-24" target="HmJOOrPuTASxMkyBcTtv-35">
          <mxGeometry relative="1" as="geometry">
            <Array as="points">
              <mxPoint x="-830" y="1230" />
              <mxPoint x="-830" y="1275" />
              <mxPoint x="-875" y="1275" />
            </Array>
          </mxGeometry>
        </mxCell>
        <mxCell id="HmJOOrPuTASxMkyBcTtv-50" style="edgeStyle=orthogonalEdgeStyle;rounded=0;orthogonalLoop=1;jettySize=auto;html=1;exitX=0;exitY=1;exitDx=0;exitDy=0;entryX=1;entryY=0;entryDx=0;entryDy=0;" edge="1" parent="1" source="zhDVDcsRZHDaqXmxdzjK-24" target="HmJOOrPuTASxMkyBcTtv-33">
          <mxGeometry relative="1" as="geometry">
            <Array as="points">
              <mxPoint x="-850" y="1250" />
              <mxPoint x="-935" y="1250" />
            </Array>
          </mxGeometry>
        </mxCell>
        <mxCell id="HmJOOrPuTASxMkyBcTtv-52" style="edgeStyle=orthogonalEdgeStyle;rounded=0;orthogonalLoop=1;jettySize=auto;html=1;exitX=0;exitY=0.25;exitDx=0;exitDy=0;entryX=1;entryY=1;entryDx=0;entryDy=0;" edge="1" parent="1" source="zhDVDcsRZHDaqXmxdzjK-24" target="HmJOOrPuTASxMkyBcTtv-36">
          <mxGeometry relative="1" as="geometry">
            <Array as="points">
              <mxPoint x="-870" y="1193" />
              <mxPoint x="-870" y="1190" />
              <mxPoint x="-905" y="1190" />
            </Array>
          </mxGeometry>
        </mxCell>
        <mxCell id="zhDVDcsRZHDaqXmxdzjK-24" value="Vehicle" style="whiteSpace=wrap;html=1;align=center;fontSize=14;" parent="1" vertex="1">
          <mxGeometry x="-850" y="1180" width="175" height="50" as="geometry" />
        </mxCell>
        <mxCell id="zhDVDcsRZHDaqXmxdzjK-25" value="type" style="ellipse;whiteSpace=wrap;html=1;align=center;fontSize=14;" parent="1" vertex="1">
          <mxGeometry x="-665" y="1050" width="100" height="40" as="geometry" />
        </mxCell>
        <mxCell id="zhDVDcsRZHDaqXmxdzjK-26" value="price_perDay" style="ellipse;whiteSpace=wrap;html=1;align=center;fontSize=14;" parent="1" vertex="1">
          <mxGeometry x="-785" y="1040" width="100" height="40" as="geometry" />
        </mxCell>
        <mxCell id="zhDVDcsRZHDaqXmxdzjK-27" value="availability" style="ellipse;whiteSpace=wrap;html=1;align=center;fontSize=14;" parent="1" vertex="1">
          <mxGeometry x="-820" y="1275" width="100" height="40" as="geometry" />
        </mxCell>
        <mxCell id="zhDVDcsRZHDaqXmxdzjK-28" value="model" style="ellipse;whiteSpace=wrap;html=1;align=center;fontSize=14;" parent="1" vertex="1">
          <mxGeometry x="-645" y="1180" width="100" height="40" as="geometry" />
        </mxCell>
        <mxCell id="zhDVDcsRZHDaqXmxdzjK-29" style="edgeStyle=orthogonalEdgeStyle;rounded=0;orthogonalLoop=1;jettySize=auto;html=1;exitX=1;exitY=0;exitDx=0;exitDy=0;entryX=0.07;entryY=0.8;entryDx=0;entryDy=0;entryPerimeter=0;fontSize=14;" parent="1" source="zhDVDcsRZHDaqXmxdzjK-24" edge="1">
          <mxGeometry relative="1" as="geometry">
            <mxPoint x="-658" y="1152" as="targetPoint" />
          </mxGeometry>
        </mxCell>
        <mxCell id="zhDVDcsRZHDaqXmxdzjK-31" value="Vehicle_id" style="ellipse;whiteSpace=wrap;html=1;align=center;fontStyle=4;fontSize=14;" parent="1" vertex="1">
          <mxGeometry x="-665" y="1120" width="100" height="40" as="geometry" />
        </mxCell>
        <mxCell id="zhDVDcsRZHDaqXmxdzjK-34" style="edgeStyle=orthogonalEdgeStyle;rounded=0;orthogonalLoop=1;jettySize=auto;html=1;exitX=0;exitY=0;exitDx=0;exitDy=0;entryX=1;entryY=0.5;entryDx=0;entryDy=0;fontSize=14;" parent="1" source="zhDVDcsRZHDaqXmxdzjK-35" target="zhDVDcsRZHDaqXmxdzjK-38" edge="1">
          <mxGeometry relative="1" as="geometry" />
        </mxCell>
        <mxCell id="HmJOOrPuTASxMkyBcTtv-53" style="edgeStyle=orthogonalEdgeStyle;rounded=0;orthogonalLoop=1;jettySize=auto;html=1;exitX=0;exitY=0.75;exitDx=0;exitDy=0;entryX=1;entryY=0;entryDx=0;entryDy=0;" edge="1" parent="1" source="zhDVDcsRZHDaqXmxdzjK-35" target="zhDVDcsRZHDaqXmxdzjK-42">
          <mxGeometry relative="1" as="geometry">
            <Array as="points">
              <mxPoint x="-945" y="820" />
            </Array>
          </mxGeometry>
        </mxCell>
        <mxCell id="zhDVDcsRZHDaqXmxdzjK-35" value="Rental" style="whiteSpace=wrap;html=1;align=center;fontSize=14;" parent="1" vertex="1">
          <mxGeometry x="-900" y="790" width="100" height="40" as="geometry" />
        </mxCell>
        <mxCell id="zhDVDcsRZHDaqXmxdzjK-37" value="rental_date" style="ellipse;whiteSpace=wrap;html=1;align=center;fontSize=14;" parent="1" vertex="1">
          <mxGeometry x="-1020" y="720" width="100" height="40" as="geometry" />
        </mxCell>
        <mxCell id="zhDVDcsRZHDaqXmxdzjK-38" value="return_date" style="ellipse;whiteSpace=wrap;html=1;align=center;fontSize=14;" parent="1" vertex="1">
          <mxGeometry x="-1030" y="770" width="100" height="40" as="geometry" />
        </mxCell>
        <mxCell id="zhDVDcsRZHDaqXmxdzjK-41" style="edgeStyle=orthogonalEdgeStyle;rounded=0;orthogonalLoop=1;jettySize=auto;html=1;exitX=0;exitY=0;exitDx=0;exitDy=0;entryX=1;entryY=0.75;entryDx=0;entryDy=0;entryPerimeter=0;fontSize=14;" parent="1" source="zhDVDcsRZHDaqXmxdzjK-35" target="zhDVDcsRZHDaqXmxdzjK-37" edge="1">
          <mxGeometry relative="1" as="geometry" />
        </mxCell>
        <mxCell id="zhDVDcsRZHDaqXmxdzjK-42" value="Rental&lt;span style=&quot;background-color: transparent; color: light-dark(rgb(0, 0, 0), rgb(255, 255, 255));&quot;&gt;_id&lt;/span&gt;" style="ellipse;whiteSpace=wrap;html=1;align=center;fontStyle=4;fontSize=14;" parent="1" vertex="1">
          <mxGeometry x="-1030" y="830" width="100" height="40" as="geometry" />
        </mxCell>
        <mxCell id="zhDVDcsRZHDaqXmxdzjK-44" style="edgeStyle=orthogonalEdgeStyle;rounded=0;orthogonalLoop=1;jettySize=auto;html=1;exitX=0.403;exitY=1.071;exitDx=0;exitDy=0;entryX=0.5;entryY=0;entryDx=0;entryDy=0;fontSize=14;exitPerimeter=0;" parent="1" source="zhDVDcsRZHDaqXmxdzjK-43" target="zhDVDcsRZHDaqXmxdzjK-35" edge="1">
          <mxGeometry relative="1" as="geometry">
            <Array as="points">
              <mxPoint x="-900" y="740" />
              <mxPoint x="-850" y="740" />
            </Array>
          </mxGeometry>
        </mxCell>
        <mxCell id="zhDVDcsRZHDaqXmxdzjK-43" value="status" style="ellipse;whiteSpace=wrap;html=1;align=center;fontSize=14;" parent="1" vertex="1">
          <mxGeometry x="-940" y="680" width="100" height="40" as="geometry" />
        </mxCell>
        <mxCell id="zhDVDcsRZHDaqXmxdzjK-47" style="edgeStyle=orthogonalEdgeStyle;rounded=0;orthogonalLoop=1;jettySize=auto;html=1;exitX=1;exitY=0.25;exitDx=0;exitDy=0;entryX=0;entryY=0.5;entryDx=0;entryDy=0;fontSize=14;" parent="1" source="zhDVDcsRZHDaqXmxdzjK-49" target="zhDVDcsRZHDaqXmxdzjK-53" edge="1">
          <mxGeometry relative="1" as="geometry" />
        </mxCell>
        <mxCell id="zhDVDcsRZHDaqXmxdzjK-48" style="edgeStyle=orthogonalEdgeStyle;rounded=0;orthogonalLoop=1;jettySize=auto;html=1;exitX=1;exitY=1;exitDx=0;exitDy=0;entryX=0;entryY=0.5;entryDx=0;entryDy=0;fontSize=14;" parent="1" source="zhDVDcsRZHDaqXmxdzjK-49" target="zhDVDcsRZHDaqXmxdzjK-52" edge="1">
          <mxGeometry relative="1" as="geometry">
            <Array as="points">
              <mxPoint x="-290" y="640" />
              <mxPoint x="-260" y="640" />
            </Array>
          </mxGeometry>
        </mxCell>
        <mxCell id="zhDVDcsRZHDaqXmxdzjK-139" style="edgeStyle=none;shape=link;rounded=0;orthogonalLoop=1;jettySize=auto;html=1;exitX=0;exitY=0.5;exitDx=0;exitDy=0;entryX=1;entryY=0.5;entryDx=0;entryDy=0;fontSize=14;" parent="1" source="zhDVDcsRZHDaqXmxdzjK-49" target="zhDVDcsRZHDaqXmxdzjK-138" edge="1">
          <mxGeometry relative="1" as="geometry" />
        </mxCell>
        <mxCell id="zhDVDcsRZHDaqXmxdzjK-49" value="Payment" style="whiteSpace=wrap;html=1;align=center;fontSize=14;" parent="1" vertex="1">
          <mxGeometry x="-390" y="570" width="100" height="40" as="geometry" />
        </mxCell>
        <mxCell id="zhDVDcsRZHDaqXmxdzjK-51" value="payment_status" style="ellipse;whiteSpace=wrap;html=1;align=center;fontSize=14;" parent="1" vertex="1">
          <mxGeometry x="-430" y="635" width="135" height="35" as="geometry" />
        </mxCell>
        <mxCell id="zhDVDcsRZHDaqXmxdzjK-52" value="payment_date" style="ellipse;whiteSpace=wrap;html=1;align=center;fontSize=14;" parent="1" vertex="1">
          <mxGeometry x="-260" y="610" width="115" height="40" as="geometry" />
        </mxCell>
        <mxCell id="zhDVDcsRZHDaqXmxdzjK-53" value="amount" style="ellipse;whiteSpace=wrap;html=1;align=center;fontSize=14;" parent="1" vertex="1">
          <mxGeometry x="-260" y="560" width="100" height="40" as="geometry" />
        </mxCell>
        <mxCell id="zhDVDcsRZHDaqXmxdzjK-54" style="edgeStyle=orthogonalEdgeStyle;rounded=0;orthogonalLoop=1;jettySize=auto;html=1;exitX=0.75;exitY=0;exitDx=0;exitDy=0;entryX=0.07;entryY=0.8;entryDx=0;entryDy=0;entryPerimeter=0;fontSize=14;" parent="1" source="zhDVDcsRZHDaqXmxdzjK-49" edge="1">
          <mxGeometry relative="1" as="geometry">
            <mxPoint x="-273" y="532" as="targetPoint" />
          </mxGeometry>
        </mxCell>
        <mxCell id="zhDVDcsRZHDaqXmxdzjK-55" style="edgeStyle=orthogonalEdgeStyle;rounded=0;orthogonalLoop=1;jettySize=auto;html=1;exitX=0.25;exitY=1;exitDx=0;exitDy=0;entryX=0.5;entryY=0;entryDx=0;entryDy=0;fontSize=14;" parent="1" source="zhDVDcsRZHDaqXmxdzjK-49" target="zhDVDcsRZHDaqXmxdzjK-51" edge="1">
          <mxGeometry relative="1" as="geometry" />
        </mxCell>
        <mxCell id="zhDVDcsRZHDaqXmxdzjK-56" value="payment_id" style="ellipse;whiteSpace=wrap;html=1;align=center;fontStyle=4;fontSize=14;" parent="1" vertex="1">
          <mxGeometry x="-280" y="500" width="100" height="40" as="geometry" />
        </mxCell>
        <mxCell id="zhDVDcsRZHDaqXmxdzjK-58" style="edgeStyle=orthogonalEdgeStyle;rounded=0;orthogonalLoop=1;jettySize=auto;html=1;exitX=1;exitY=0.25;exitDx=0;exitDy=0;entryX=0;entryY=0.5;entryDx=0;entryDy=0;fontSize=14;" parent="1" source="zhDVDcsRZHDaqXmxdzjK-60" target="zhDVDcsRZHDaqXmxdzjK-64" edge="1">
          <mxGeometry relative="1" as="geometry" />
        </mxCell>
        <mxCell id="zhDVDcsRZHDaqXmxdzjK-59" style="edgeStyle=orthogonalEdgeStyle;rounded=0;orthogonalLoop=1;jettySize=auto;html=1;entryX=0.5;entryY=0;entryDx=0;entryDy=0;exitX=0.423;exitY=1.075;exitDx=0;exitDy=0;exitPerimeter=0;fontSize=14;" parent="1" source="zhDVDcsRZHDaqXmxdzjK-60" target="zhDVDcsRZHDaqXmxdzjK-63" edge="1">
          <mxGeometry relative="1" as="geometry">
            <mxPoint x="-325" y="840" as="sourcePoint" />
          </mxGeometry>
        </mxCell>
        <mxCell id="HmJOOrPuTASxMkyBcTtv-54" style="edgeStyle=orthogonalEdgeStyle;rounded=0;orthogonalLoop=1;jettySize=auto;html=1;exitX=1;exitY=1;exitDx=0;exitDy=0;entryX=0;entryY=0.5;entryDx=0;entryDy=0;" edge="1" parent="1" source="zhDVDcsRZHDaqXmxdzjK-60" target="zhDVDcsRZHDaqXmxdzjK-69">
          <mxGeometry relative="1" as="geometry" />
        </mxCell>
        <mxCell id="zhDVDcsRZHDaqXmxdzjK-60" value="Review" style="whiteSpace=wrap;html=1;align=center;fontSize=14;" parent="1" vertex="1">
          <mxGeometry x="-375" y="780" width="100" height="40" as="geometry" />
        </mxCell>
        <mxCell id="zhDVDcsRZHDaqXmxdzjK-63" value="rating" style="ellipse;whiteSpace=wrap;html=1;align=center;fontSize=14;" parent="1" vertex="1">
          <mxGeometry x="-345" y="860" width="100" height="40" as="geometry" />
        </mxCell>
        <mxCell id="zhDVDcsRZHDaqXmxdzjK-64" value="comments" style="ellipse;whiteSpace=wrap;html=1;align=center;fontSize=14;" parent="1" vertex="1">
          <mxGeometry x="-195" y="770" width="100" height="40" as="geometry" />
        </mxCell>
        <mxCell id="zhDVDcsRZHDaqXmxdzjK-65" style="edgeStyle=orthogonalEdgeStyle;rounded=0;orthogonalLoop=1;jettySize=auto;html=1;exitX=0.75;exitY=0;exitDx=0;exitDy=0;entryX=0;entryY=1;entryDx=0;entryDy=0;fontSize=14;" parent="1" source="zhDVDcsRZHDaqXmxdzjK-60" target="zhDVDcsRZHDaqXmxdzjK-67" edge="1">
          <mxGeometry relative="1" as="geometry">
            <mxPoint x="-225" y="742" as="targetPoint" />
          </mxGeometry>
        </mxCell>
        <mxCell id="zhDVDcsRZHDaqXmxdzjK-67" value="review&lt;span style=&quot;background-color: transparent; color: light-dark(rgb(0, 0, 0), rgb(255, 255, 255));&quot;&gt;_id&lt;/span&gt;" style="ellipse;whiteSpace=wrap;html=1;align=center;fontStyle=4;fontSize=14;" parent="1" vertex="1">
          <mxGeometry x="-215" y="700" width="100" height="40" as="geometry" />
        </mxCell>
        <mxCell id="zhDVDcsRZHDaqXmxdzjK-69" value="review_date" style="ellipse;whiteSpace=wrap;html=1;align=center;fontSize=14;" parent="1" vertex="1">
          <mxGeometry x="-220" y="820" width="100" height="40" as="geometry" />
        </mxCell>
        <mxCell id="zhDVDcsRZHDaqXmxdzjK-71" style="edgeStyle=orthogonalEdgeStyle;rounded=0;orthogonalLoop=1;jettySize=auto;html=1;exitX=1;exitY=0.25;exitDx=0;exitDy=0;entryX=0;entryY=0.5;entryDx=0;entryDy=0;fontSize=14;" parent="1" source="zhDVDcsRZHDaqXmxdzjK-73" target="zhDVDcsRZHDaqXmxdzjK-77" edge="1">
          <mxGeometry relative="1" as="geometry" />
        </mxCell>
        <mxCell id="zhDVDcsRZHDaqXmxdzjK-72" style="edgeStyle=orthogonalEdgeStyle;rounded=0;orthogonalLoop=1;jettySize=auto;html=1;exitX=0;exitY=0.5;exitDx=0;exitDy=0;entryX=1;entryY=0.5;entryDx=0;entryDy=0;fontSize=14;" parent="1" source="zhDVDcsRZHDaqXmxdzjK-73" target="zhDVDcsRZHDaqXmxdzjK-76" edge="1">
          <mxGeometry relative="1" as="geometry" />
        </mxCell>
        <mxCell id="zhDVDcsRZHDaqXmxdzjK-147" style="edgeStyle=none;shape=link;rounded=0;orthogonalLoop=1;jettySize=auto;html=1;exitX=0.5;exitY=0;exitDx=0;exitDy=0;entryX=0.5;entryY=1;entryDx=0;entryDy=0;fontSize=14;" parent="1" source="zhDVDcsRZHDaqXmxdzjK-73" target="zhDVDcsRZHDaqXmxdzjK-146" edge="1">
          <mxGeometry relative="1" as="geometry" />
        </mxCell>
        <mxCell id="HmJOOrPuTASxMkyBcTtv-81" style="edgeStyle=orthogonalEdgeStyle;rounded=0;orthogonalLoop=1;jettySize=auto;html=1;exitX=0.5;exitY=1;exitDx=0;exitDy=0;entryX=0.5;entryY=0;entryDx=0;entryDy=0;" edge="1" parent="1" source="zhDVDcsRZHDaqXmxdzjK-73" target="HmJOOrPuTASxMkyBcTtv-80">
          <mxGeometry relative="1" as="geometry" />
        </mxCell>
        <mxCell id="zhDVDcsRZHDaqXmxdzjK-73" value="Maintenance_Record" style="whiteSpace=wrap;html=1;align=center;fontSize=14;" parent="1" vertex="1">
          <mxGeometry x="-695" y="1490" width="190" height="40" as="geometry" />
        </mxCell>
        <mxCell id="zhDVDcsRZHDaqXmxdzjK-75" value="description" style="ellipse;whiteSpace=wrap;html=1;align=center;fontSize=14;" parent="1" vertex="1">
          <mxGeometry x="-815" y="1420" width="100" height="40" as="geometry" />
        </mxCell>
        <mxCell id="zhDVDcsRZHDaqXmxdzjK-76" value="maintenance_date" style="ellipse;whiteSpace=wrap;html=1;align=center;fontSize=14;" parent="1" vertex="1">
          <mxGeometry x="-850" y="1490" width="135" height="40" as="geometry" />
        </mxCell>
        <mxCell id="zhDVDcsRZHDaqXmxdzjK-77" value="cost" style="ellipse;whiteSpace=wrap;html=1;align=center;fontSize=14;" parent="1" vertex="1">
          <mxGeometry x="-475" y="1500" width="100" height="40" as="geometry" />
        </mxCell>
        <mxCell id="zhDVDcsRZHDaqXmxdzjK-78" style="edgeStyle=orthogonalEdgeStyle;rounded=0;orthogonalLoop=1;jettySize=auto;html=1;exitX=0.75;exitY=0;exitDx=0;exitDy=0;entryX=0.5;entryY=1;entryDx=0;entryDy=0;fontSize=14;" parent="1" source="zhDVDcsRZHDaqXmxdzjK-73" target="zhDVDcsRZHDaqXmxdzjK-80" edge="1">
          <mxGeometry relative="1" as="geometry">
            <mxPoint x="-578" y="1452" as="targetPoint" />
          </mxGeometry>
        </mxCell>
        <mxCell id="zhDVDcsRZHDaqXmxdzjK-79" style="edgeStyle=orthogonalEdgeStyle;rounded=0;orthogonalLoop=1;jettySize=auto;html=1;exitX=0;exitY=0;exitDx=0;exitDy=0;entryX=1;entryY=0.75;entryDx=0;entryDy=0;entryPerimeter=0;fontSize=14;" parent="1" source="zhDVDcsRZHDaqXmxdzjK-73" target="zhDVDcsRZHDaqXmxdzjK-75" edge="1">
          <mxGeometry relative="1" as="geometry" />
        </mxCell>
        <mxCell id="zhDVDcsRZHDaqXmxdzjK-80" value="maintenance_id" style="ellipse;whiteSpace=wrap;html=1;align=center;fontStyle=4;fontSize=14;" parent="1" vertex="1">
          <mxGeometry x="-585" y="1420" width="120" height="40" as="geometry" />
        </mxCell>
        <mxCell id="zhDVDcsRZHDaqXmxdzjK-81" style="edgeStyle=orthogonalEdgeStyle;rounded=0;orthogonalLoop=1;jettySize=auto;html=1;exitX=0.75;exitY=1;exitDx=0;exitDy=0;entryX=0.5;entryY=0;entryDx=0;entryDy=0;fontSize=14;" parent="1" source="zhDVDcsRZHDaqXmxdzjK-84" target="zhDVDcsRZHDaqXmxdzjK-85" edge="1">
          <mxGeometry relative="1" as="geometry">
            <Array as="points">
              <mxPoint x="205" y="1690" />
              <mxPoint x="210" y="1690" />
            </Array>
          </mxGeometry>
        </mxCell>
        <mxCell id="zhDVDcsRZHDaqXmxdzjK-83" style="edgeStyle=orthogonalEdgeStyle;rounded=0;orthogonalLoop=1;jettySize=auto;html=1;exitX=0.25;exitY=1;exitDx=0;exitDy=0;entryX=1;entryY=0.5;entryDx=0;entryDy=0;fontSize=14;" parent="1" source="zhDVDcsRZHDaqXmxdzjK-84" target="zhDVDcsRZHDaqXmxdzjK-87" edge="1">
          <mxGeometry relative="1" as="geometry" />
        </mxCell>
        <mxCell id="zhDVDcsRZHDaqXmxdzjK-84" value="Admin" style="whiteSpace=wrap;html=1;align=center;fontSize=14;" parent="1" vertex="1">
          <mxGeometry x="130" y="1630" width="100" height="40" as="geometry" />
        </mxCell>
        <mxCell id="zhDVDcsRZHDaqXmxdzjK-85" value="name" style="ellipse;whiteSpace=wrap;html=1;align=center;fontSize=14;" parent="1" vertex="1">
          <mxGeometry x="160" y="1710" width="100" height="40" as="geometry" />
        </mxCell>
        <mxCell id="zhDVDcsRZHDaqXmxdzjK-87" value="&lt;u&gt;email&lt;/u&gt;" style="ellipse;whiteSpace=wrap;html=1;align=center;fontSize=14;" parent="1" vertex="1">
          <mxGeometry x="30" y="1700" width="100" height="40" as="geometry" />
        </mxCell>
        <mxCell id="HmJOOrPuTASxMkyBcTtv-22" style="edgeStyle=orthogonalEdgeStyle;rounded=0;orthogonalLoop=1;jettySize=auto;html=1;exitX=0;exitY=0;exitDx=0;exitDy=0;entryX=1;entryY=1;entryDx=0;entryDy=0;fontSize=14;" edge="1" parent="1" source="zhDVDcsRZHDaqXmxdzjK-91" target="zhDVDcsRZHDaqXmxdzjK-84">
          <mxGeometry relative="1" as="geometry">
            <Array as="points">
              <mxPoint x="285" y="1690" />
              <mxPoint x="230" y="1690" />
            </Array>
          </mxGeometry>
        </mxCell>
        <mxCell id="zhDVDcsRZHDaqXmxdzjK-91" value="admin_id" style="ellipse;whiteSpace=wrap;html=1;align=center;fontStyle=4;fontSize=14;" parent="1" vertex="1">
          <mxGeometry x="270" y="1700" width="100" height="40" as="geometry" />
        </mxCell>
        <mxCell id="zhDVDcsRZHDaqXmxdzjK-117" value="&lt;font&gt;1&lt;/font&gt;" style="edgeLabel;html=1;align=center;verticalAlign=middle;resizable=0;points=[];fontSize=14;" parent="1" vertex="1" connectable="0">
          <mxGeometry x="-900.0018935819617" y="979.9971338312544" as="geometry">
            <mxPoint x="-9" y="-10" as="offset" />
          </mxGeometry>
        </mxCell>
        <mxCell id="zhDVDcsRZHDaqXmxdzjK-119" value="makes" style="shape=rhombus;perimeter=rhombusPerimeter;whiteSpace=wrap;html=1;align=center;fontSize=14;" parent="1" vertex="1">
          <mxGeometry x="-685" y="910" width="65" height="50" as="geometry" />
        </mxCell>
        <mxCell id="zhDVDcsRZHDaqXmxdzjK-121" value="" style="endArrow=none;html=1;rounded=0;entryX=1;entryY=0.5;entryDx=0;entryDy=0;exitX=0;exitY=0;exitDx=0;exitDy=0;fontSize=14;" parent="1" source="zhDVDcsRZHDaqXmxdzjK-1" target="zhDVDcsRZHDaqXmxdzjK-119" edge="1">
          <mxGeometry relative="1" as="geometry">
            <mxPoint x="-480" y="1042.5" as="sourcePoint" />
            <mxPoint x="-620" y="937.5" as="targetPoint" />
          </mxGeometry>
        </mxCell>
        <mxCell id="zhDVDcsRZHDaqXmxdzjK-127" value="becomes" style="shape=rhombus;perimeter=rhombusPerimeter;whiteSpace=wrap;html=1;align=center;fontSize=14;" parent="1" vertex="1">
          <mxGeometry x="-935" y="990" width="90" height="50" as="geometry" />
        </mxCell>
        <mxCell id="zhDVDcsRZHDaqXmxdzjK-130" style="edgeStyle=none;shape=link;rounded=0;orthogonalLoop=1;jettySize=auto;html=1;exitX=0.5;exitY=0;exitDx=0;exitDy=0;entryX=0.15;entryY=1;entryDx=0;entryDy=0;entryPerimeter=0;fontSize=14;" parent="1" source="zhDVDcsRZHDaqXmxdzjK-127" target="zhDVDcsRZHDaqXmxdzjK-35" edge="1">
          <mxGeometry relative="1" as="geometry" />
        </mxCell>
        <mxCell id="zhDVDcsRZHDaqXmxdzjK-133" value="&lt;span&gt;1&lt;/span&gt;" style="edgeLabel;html=1;align=center;verticalAlign=middle;resizable=0;points=[];fontSize=14;" parent="1" vertex="1" connectable="0">
          <mxGeometry x="-1440.0018935819617" y="1165.9971338312544" as="geometry">
            <mxPoint x="537" y="-112" as="offset" />
          </mxGeometry>
        </mxCell>
        <mxCell id="zhDVDcsRZHDaqXmxdzjK-134" value="" style="endArrow=none;html=1;rounded=0;exitX=0.5;exitY=1;exitDx=0;exitDy=0;entryX=0;entryY=0;entryDx=0;entryDy=0;fontSize=14;" parent="1" source="zhDVDcsRZHDaqXmxdzjK-127" target="zhDVDcsRZHDaqXmxdzjK-24" edge="1">
          <mxGeometry relative="1" as="geometry">
            <mxPoint x="-615" y="1030" as="sourcePoint" />
            <mxPoint x="-455" y="1030" as="targetPoint" />
          </mxGeometry>
        </mxCell>
        <mxCell id="zhDVDcsRZHDaqXmxdzjK-140" style="edgeStyle=none;shape=link;rounded=0;orthogonalLoop=1;jettySize=auto;html=1;exitX=0;exitY=0.5;exitDx=0;exitDy=0;entryX=1;entryY=0.5;entryDx=0;entryDy=0;fontSize=14;" parent="1" source="zhDVDcsRZHDaqXmxdzjK-138" target="zhDVDcsRZHDaqXmxdzjK-35" edge="1">
          <mxGeometry relative="1" as="geometry" />
        </mxCell>
        <mxCell id="zhDVDcsRZHDaqXmxdzjK-138" value="requires" style="shape=rhombus;perimeter=rhombusPerimeter;whiteSpace=wrap;html=1;align=center;fontSize=14;" parent="1" vertex="1">
          <mxGeometry x="-590" y="625" width="65" height="50" as="geometry" />
        </mxCell>
        <mxCell id="zhDVDcsRZHDaqXmxdzjK-141" value="&lt;font&gt;1&lt;/font&gt;" style="edgeLabel;html=1;align=center;verticalAlign=middle;resizable=0;points=[];fontSize=14;" parent="1" vertex="1" connectable="0">
          <mxGeometry x="-1060.0018935819617" y="739.9971338312544" as="geometry">
            <mxPoint x="537" y="-112" as="offset" />
          </mxGeometry>
        </mxCell>
        <mxCell id="zhDVDcsRZHDaqXmxdzjK-146" value="has" style="shape=rhombus;perimeter=rhombusPerimeter;whiteSpace=wrap;html=1;align=center;fontSize=14;" parent="1" vertex="1">
          <mxGeometry x="-695" y="1340" width="70" height="50" as="geometry" />
        </mxCell>
        <mxCell id="zhDVDcsRZHDaqXmxdzjK-148" value="" style="endArrow=none;html=1;rounded=0;exitX=0.5;exitY=1;exitDx=0;exitDy=0;entryX=0.5;entryY=0;entryDx=0;entryDy=0;fontSize=14;" parent="1" source="zhDVDcsRZHDaqXmxdzjK-24" target="zhDVDcsRZHDaqXmxdzjK-146" edge="1">
          <mxGeometry relative="1" as="geometry">
            <mxPoint x="-335" y="1240" as="sourcePoint" />
            <mxPoint x="-175" y="1240" as="targetPoint" />
          </mxGeometry>
        </mxCell>
        <mxCell id="zhDVDcsRZHDaqXmxdzjK-150" value="&lt;font&gt;N&lt;/font&gt;" style="edgeLabel;html=1;align=center;verticalAlign=middle;resizable=0;points=[];fontSize=14;" parent="1" vertex="1" connectable="0">
          <mxGeometry x="-690.0018935819617" y="1119.9971338312544" as="geometry">
            <mxPoint x="17" y="287" as="offset" />
          </mxGeometry>
        </mxCell>
        <mxCell id="zhDVDcsRZHDaqXmxdzjK-151" value="&lt;font&gt;1&lt;/font&gt;" style="edgeLabel;html=1;align=center;verticalAlign=middle;resizable=0;points=[];fontSize=14;" parent="1" vertex="1" connectable="0">
          <mxGeometry x="-675.0018935819617" y="1039.9971338312544" as="geometry">
            <mxPoint x="17" y="287" as="offset" />
          </mxGeometry>
        </mxCell>
        <mxCell id="zhDVDcsRZHDaqXmxdzjK-154" value="&lt;font&gt;N&lt;/font&gt;" style="edgeLabel;html=1;align=center;verticalAlign=middle;resizable=0;points=[];fontSize=14;" parent="1" vertex="1" connectable="0">
          <mxGeometry x="-1220.0018935819617" y="1019.9971338312544" as="geometry">
            <mxPoint x="537" y="-112" as="offset" />
          </mxGeometry>
        </mxCell>
        <mxCell id="zhDVDcsRZHDaqXmxdzjK-155" value="&lt;span&gt;1&lt;/span&gt;" style="edgeLabel;html=1;align=center;verticalAlign=middle;resizable=0;points=[];fontSize=14;" parent="1" vertex="1" connectable="0">
          <mxGeometry x="-1140.0018935819617" y="749.9971338312544" as="geometry">
            <mxPoint x="537" y="-112" as="offset" />
          </mxGeometry>
        </mxCell>
        <mxCell id="zhDVDcsRZHDaqXmxdzjK-156" value="&lt;span&gt;1&lt;/span&gt;" style="edgeLabel;html=1;align=center;verticalAlign=middle;resizable=0;points=[];fontSize=14;" parent="1" vertex="1" connectable="0">
          <mxGeometry x="-1140.0018935819617" y="1029.9971338312544" as="geometry">
            <mxPoint x="537" y="-112" as="offset" />
          </mxGeometry>
        </mxCell>
        <mxCell id="zhDVDcsRZHDaqXmxdzjK-157" value="first_name" style="ellipse;whiteSpace=wrap;html=1;align=center;fontSize=14;" parent="1" vertex="1">
          <mxGeometry x="185" y="920" width="100" height="40" as="geometry" />
        </mxCell>
        <mxCell id="zhDVDcsRZHDaqXmxdzjK-158" value="last_name" style="ellipse;whiteSpace=wrap;html=1;align=center;fontSize=14;" parent="1" vertex="1">
          <mxGeometry x="184.71000000000004" y="1000" width="100" height="40" as="geometry" />
        </mxCell>
        <mxCell id="zhDVDcsRZHDaqXmxdzjK-159" style="edgeStyle=none;rounded=0;orthogonalLoop=1;jettySize=auto;html=1;exitX=1;exitY=0;exitDx=0;exitDy=0;entryX=0.065;entryY=0.729;entryDx=0;entryDy=0;entryPerimeter=0;fontSize=14;" parent="1" source="zhDVDcsRZHDaqXmxdzjK-12" target="zhDVDcsRZHDaqXmxdzjK-157" edge="1">
          <mxGeometry relative="1" as="geometry" />
        </mxCell>
        <mxCell id="HmJOOrPuTASxMkyBcTtv-2" style="edgeStyle=orthogonalEdgeStyle;rounded=0;orthogonalLoop=1;jettySize=auto;html=1;exitX=1;exitY=0.25;exitDx=0;exitDy=0;entryX=0;entryY=0.5;entryDx=0;entryDy=0;fontSize=14;" edge="1" parent="1" source="HmJOOrPuTASxMkyBcTtv-4" target="HmJOOrPuTASxMkyBcTtv-7">
          <mxGeometry relative="1" as="geometry" />
        </mxCell>
        <mxCell id="HmJOOrPuTASxMkyBcTtv-3" style="edgeStyle=orthogonalEdgeStyle;rounded=0;orthogonalLoop=1;jettySize=auto;html=1;exitX=1;exitY=1;exitDx=0;exitDy=0;entryX=0;entryY=0.5;entryDx=0;entryDy=0;fontSize=14;" edge="1" parent="1" source="HmJOOrPuTASxMkyBcTtv-4" target="HmJOOrPuTASxMkyBcTtv-6">
          <mxGeometry relative="1" as="geometry">
            <Array as="points">
              <mxPoint x="499" y="1330" />
              <mxPoint x="529" y="1330" />
            </Array>
          </mxGeometry>
        </mxCell>
        <mxCell id="HmJOOrPuTASxMkyBcTtv-12" style="edgeStyle=orthogonalEdgeStyle;rounded=0;orthogonalLoop=1;jettySize=auto;html=1;exitX=0.75;exitY=1;exitDx=0;exitDy=0;entryX=0;entryY=0;entryDx=0;entryDy=0;fontSize=14;" edge="1" parent="1" source="HmJOOrPuTASxMkyBcTtv-4" target="HmJOOrPuTASxMkyBcTtv-11">
          <mxGeometry relative="1" as="geometry">
            <Array as="points">
              <mxPoint x="474" y="1340" />
              <mxPoint x="514" y="1340" />
            </Array>
          </mxGeometry>
        </mxCell>
        <mxCell id="HmJOOrPuTASxMkyBcTtv-4" value="User" style="whiteSpace=wrap;html=1;align=center;fontSize=14;" vertex="1" parent="1">
          <mxGeometry x="399" y="1260" width="100" height="40" as="geometry" />
        </mxCell>
        <mxCell id="HmJOOrPuTASxMkyBcTtv-5" value="role" style="ellipse;whiteSpace=wrap;html=1;align=center;fontSize=14;" vertex="1" parent="1">
          <mxGeometry x="369" y="1330" width="100" height="40" as="geometry" />
        </mxCell>
        <mxCell id="HmJOOrPuTASxMkyBcTtv-6" value="password_hash" style="ellipse;whiteSpace=wrap;html=1;align=center;fontSize=14;" vertex="1" parent="1">
          <mxGeometry x="529" y="1300" width="120" height="40" as="geometry" />
        </mxCell>
        <mxCell id="HmJOOrPuTASxMkyBcTtv-7" value="&lt;u&gt;email&lt;/u&gt;" style="ellipse;whiteSpace=wrap;html=1;align=center;fontSize=14;" vertex="1" parent="1">
          <mxGeometry x="529" y="1250" width="100" height="40" as="geometry" />
        </mxCell>
        <mxCell id="HmJOOrPuTASxMkyBcTtv-8" style="edgeStyle=orthogonalEdgeStyle;rounded=0;orthogonalLoop=1;jettySize=auto;html=1;exitX=0.75;exitY=0;exitDx=0;exitDy=0;entryX=0.07;entryY=0.8;entryDx=0;entryDy=0;entryPerimeter=0;fontSize=14;" edge="1" parent="1" source="HmJOOrPuTASxMkyBcTtv-4">
          <mxGeometry relative="1" as="geometry">
            <mxPoint x="516" y="1222" as="targetPoint" />
          </mxGeometry>
        </mxCell>
        <mxCell id="HmJOOrPuTASxMkyBcTtv-9" style="edgeStyle=orthogonalEdgeStyle;rounded=0;orthogonalLoop=1;jettySize=auto;html=1;exitX=0.25;exitY=1;exitDx=0;exitDy=0;entryX=0.5;entryY=0;entryDx=0;entryDy=0;fontSize=14;" edge="1" parent="1" source="HmJOOrPuTASxMkyBcTtv-4" target="HmJOOrPuTASxMkyBcTtv-5">
          <mxGeometry relative="1" as="geometry" />
        </mxCell>
        <mxCell id="HmJOOrPuTASxMkyBcTtv-10" value="user_id" style="ellipse;whiteSpace=wrap;html=1;align=center;fontStyle=4;fontSize=14;" vertex="1" parent="1">
          <mxGeometry x="509" y="1190" width="100" height="40" as="geometry" />
        </mxCell>
        <mxCell id="HmJOOrPuTASxMkyBcTtv-11" value="timestamp" style="ellipse;whiteSpace=wrap;html=1;align=center;fontSize=14;" vertex="1" parent="1">
          <mxGeometry x="499" y="1360" width="100" height="40" as="geometry" />
        </mxCell>
        <mxCell id="HmJOOrPuTASxMkyBcTtv-16" value="is" style="shape=rhombus;perimeter=rhombusPerimeter;whiteSpace=wrap;html=1;align=center;fontSize=14;" vertex="1" parent="1">
          <mxGeometry x="152" y="1166" width="90" height="50" as="geometry" />
        </mxCell>
        <mxCell id="HmJOOrPuTASxMkyBcTtv-17" value="1&lt;div&gt;&lt;br&gt;&lt;/div&gt;" style="edgeLabel;html=1;align=center;verticalAlign=middle;resizable=0;points=[];fontSize=14;" vertex="1" connectable="0" parent="1">
          <mxGeometry x="244.99810641803884" y="1179.9971338312544" as="geometry" />
        </mxCell>
        <mxCell id="HmJOOrPuTASxMkyBcTtv-18" value="&lt;font&gt;1&lt;/font&gt;" style="edgeLabel;html=1;align=center;verticalAlign=middle;resizable=0;points=[];fontSize=14;" vertex="1" connectable="0" parent="1">
          <mxGeometry x="229.99810641803884" y="1229.9971338312544" as="geometry">
            <mxPoint x="-81" y="-61" as="offset" />
          </mxGeometry>
        </mxCell>
        <mxCell id="HmJOOrPuTASxMkyBcTtv-19" value="is" style="shape=rhombus;perimeter=rhombusPerimeter;whiteSpace=wrap;html=1;align=center;fontSize=14;" vertex="1" parent="1">
          <mxGeometry x="200" y="1414" width="90" height="50" as="geometry" />
        </mxCell>
        <mxCell id="HmJOOrPuTASxMkyBcTtv-20" value="&lt;font&gt;1&lt;/font&gt;" style="edgeLabel;html=1;align=center;verticalAlign=middle;resizable=0;points=[];fontSize=14;" vertex="1" connectable="0" parent="1">
          <mxGeometry x="289.99810641803884" y="1413.9971338312544" as="geometry">
            <mxPoint x="-3" y="6" as="offset" />
          </mxGeometry>
        </mxCell>
        <mxCell id="HmJOOrPuTASxMkyBcTtv-21" value="&lt;font&gt;1&lt;/font&gt;" style="edgeLabel;html=1;align=center;verticalAlign=middle;resizable=0;points=[];fontSize=14;" vertex="1" connectable="0" parent="1">
          <mxGeometry x="269.99810641803884" y="1484.9971338312544" as="geometry">
            <mxPoint x="-81" y="-61" as="offset" />
          </mxGeometry>
        </mxCell>
        <mxCell id="HmJOOrPuTASxMkyBcTtv-24" value="" style="endArrow=none;html=1;rounded=0;entryX=1;entryY=0.5;entryDx=0;entryDy=0;exitX=0;exitY=0.5;exitDx=0;exitDy=0;fontSize=14;" edge="1" parent="1" source="HmJOOrPuTASxMkyBcTtv-4" target="HmJOOrPuTASxMkyBcTtv-19">
          <mxGeometry relative="1" as="geometry">
            <mxPoint x="-65" y="1000" as="sourcePoint" />
            <mxPoint x="-600" y="955" as="targetPoint" />
          </mxGeometry>
        </mxCell>
        <mxCell id="HmJOOrPuTASxMkyBcTtv-25" value="" style="endArrow=none;html=1;rounded=0;exitX=0.5;exitY=0;exitDx=0;exitDy=0;shape=link;entryX=0;entryY=0.5;entryDx=0;entryDy=0;fontSize=14;" edge="1" parent="1" source="zhDVDcsRZHDaqXmxdzjK-84" target="HmJOOrPuTASxMkyBcTtv-19">
          <mxGeometry relative="1" as="geometry">
            <mxPoint x="70" y="1530" as="sourcePoint" />
            <mxPoint x="370" y="1525" as="targetPoint" />
          </mxGeometry>
        </mxCell>
        <mxCell id="HmJOOrPuTASxMkyBcTtv-29" value="" style="endArrow=none;html=1;rounded=0;exitX=0.5;exitY=1;exitDx=0;exitDy=0;shape=link;entryX=0;entryY=0.5;entryDx=0;entryDy=0;fontSize=14;" edge="1" parent="1" source="zhDVDcsRZHDaqXmxdzjK-1" target="HmJOOrPuTASxMkyBcTtv-16">
          <mxGeometry relative="1" as="geometry">
            <mxPoint x="155" y="1282" as="sourcePoint" />
            <mxPoint x="248" y="1120" as="targetPoint" />
            <Array as="points" />
          </mxGeometry>
        </mxCell>
        <mxCell id="HmJOOrPuTASxMkyBcTtv-31" value="" style="endArrow=none;html=1;rounded=0;entryX=1;entryY=0.5;entryDx=0;entryDy=0;exitX=0;exitY=0.5;exitDx=0;exitDy=0;fontSize=14;" edge="1" parent="1" source="HmJOOrPuTASxMkyBcTtv-4" target="HmJOOrPuTASxMkyBcTtv-16">
          <mxGeometry relative="1" as="geometry">
            <mxPoint x="540" y="1290" as="sourcePoint" />
            <mxPoint x="350" y="1465" as="targetPoint" />
          </mxGeometry>
        </mxCell>
        <mxCell id="HmJOOrPuTASxMkyBcTtv-32" value="brand" style="ellipse;whiteSpace=wrap;html=1;align=center;fontSize=14;" vertex="1" parent="1">
          <mxGeometry x="-850" y="1080" width="100" height="40" as="geometry" />
        </mxCell>
        <mxCell id="HmJOOrPuTASxMkyBcTtv-33" value="image_path" style="ellipse;whiteSpace=wrap;html=1;align=center;fontSize=14;" vertex="1" parent="1">
          <mxGeometry x="-1020" y="1260" width="100" height="40" as="geometry" />
        </mxCell>
        <mxCell id="HmJOOrPuTASxMkyBcTtv-34" value="transmission" style="ellipse;whiteSpace=wrap;html=1;align=center;fontSize=14;" vertex="1" parent="1">
          <mxGeometry x="-1020" y="1200" width="100" height="40" as="geometry" />
        </mxCell>
        <mxCell id="HmJOOrPuTASxMkyBcTtv-35" value="color" style="ellipse;whiteSpace=wrap;html=1;align=center;fontSize=14;" vertex="1" parent="1">
          <mxGeometry x="-960" y="1320" width="100" height="40" as="geometry" />
        </mxCell>
        <mxCell id="HmJOOrPuTASxMkyBcTtv-36" value="year" style="ellipse;whiteSpace=wrap;html=1;align=center;fontSize=14;" vertex="1" parent="1">
          <mxGeometry x="-990" y="1135" width="100" height="40" as="geometry" />
        </mxCell>
        <mxCell id="HmJOOrPuTASxMkyBcTtv-42" style="edgeStyle=orthogonalEdgeStyle;rounded=0;orthogonalLoop=1;jettySize=auto;html=1;exitX=0.75;exitY=0;exitDx=0;exitDy=0;entryX=0.653;entryY=0.964;entryDx=0;entryDy=0;entryPerimeter=0;" edge="1" parent="1" source="zhDVDcsRZHDaqXmxdzjK-24" target="zhDVDcsRZHDaqXmxdzjK-26">
          <mxGeometry relative="1" as="geometry" />
        </mxCell>
        <mxCell id="HmJOOrPuTASxMkyBcTtv-55" value="has" style="shape=rhombus;perimeter=rhombusPerimeter;whiteSpace=wrap;html=1;align=center;fontSize=14;" vertex="1" parent="1">
          <mxGeometry x="-545" y="790" width="65" height="50" as="geometry" />
        </mxCell>
        <mxCell id="HmJOOrPuTASxMkyBcTtv-57" value="" style="endArrow=none;html=1;rounded=0;entryX=1;entryY=0.75;entryDx=0;entryDy=0;exitX=0;exitY=0.5;exitDx=0;exitDy=0;fontSize=14;" edge="1" parent="1" source="HmJOOrPuTASxMkyBcTtv-55" target="zhDVDcsRZHDaqXmxdzjK-35">
          <mxGeometry relative="1" as="geometry">
            <mxPoint x="-75" y="990" as="sourcePoint" />
            <mxPoint x="-610" y="945" as="targetPoint" />
          </mxGeometry>
        </mxCell>
        <mxCell id="HmJOOrPuTASxMkyBcTtv-58" value="&lt;font&gt;N&lt;/font&gt;" style="edgeLabel;html=1;align=center;verticalAlign=middle;resizable=0;points=[];fontSize=14;" vertex="1" connectable="0" parent="1">
          <mxGeometry x="-1010.0018935819617" y="899.9971338312544" as="geometry">
            <mxPoint x="537" y="-112" as="offset" />
          </mxGeometry>
        </mxCell>
        <mxCell id="HmJOOrPuTASxMkyBcTtv-59" style="edgeStyle=none;shape=link;rounded=0;orthogonalLoop=1;jettySize=auto;html=1;exitX=0;exitY=0.5;exitDx=0;exitDy=0;entryX=1;entryY=0.5;entryDx=0;entryDy=0;fontSize=14;" edge="1" parent="1" source="zhDVDcsRZHDaqXmxdzjK-60" target="HmJOOrPuTASxMkyBcTtv-55">
          <mxGeometry relative="1" as="geometry">
            <mxPoint x="-675" y="945" as="sourcePoint" />
            <mxPoint x="-840" y="840" as="targetPoint" />
          </mxGeometry>
        </mxCell>
        <mxCell id="HmJOOrPuTASxMkyBcTtv-60" value="&lt;span&gt;1&lt;/span&gt;" style="edgeLabel;html=1;align=center;verticalAlign=middle;resizable=0;points=[];fontSize=14;" vertex="1" connectable="0" parent="1">
          <mxGeometry x="-1090.0018935819617" y="909.9971338312544" as="geometry">
            <mxPoint x="537" y="-112" as="offset" />
          </mxGeometry>
        </mxCell>
        <mxCell id="HmJOOrPuTASxMkyBcTtv-61" style="edgeStyle=orthogonalEdgeStyle;rounded=0;orthogonalLoop=1;jettySize=auto;html=1;exitX=1;exitY=0.5;exitDx=0;exitDy=0;entryX=0;entryY=0.5;entryDx=0;entryDy=0;fontSize=14;" edge="1" parent="1" source="HmJOOrPuTASxMkyBcTtv-63" target="HmJOOrPuTASxMkyBcTtv-66">
          <mxGeometry relative="1" as="geometry" />
        </mxCell>
        <mxCell id="HmJOOrPuTASxMkyBcTtv-62" style="edgeStyle=orthogonalEdgeStyle;rounded=0;orthogonalLoop=1;jettySize=auto;html=1;exitX=0.25;exitY=1;exitDx=0;exitDy=0;entryX=1;entryY=0;entryDx=0;entryDy=0;fontSize=14;" edge="1" parent="1" source="HmJOOrPuTASxMkyBcTtv-63" target="HmJOOrPuTASxMkyBcTtv-65">
          <mxGeometry relative="1" as="geometry" />
        </mxCell>
        <mxCell id="HmJOOrPuTASxMkyBcTtv-63" value="admin_log" style="whiteSpace=wrap;html=1;align=center;fontSize=14;" vertex="1" parent="1">
          <mxGeometry x="-150" y="1345" width="130" height="40" as="geometry" />
        </mxCell>
        <mxCell id="HmJOOrPuTASxMkyBcTtv-64" value="description" style="ellipse;whiteSpace=wrap;html=1;align=center;fontSize=14;" vertex="1" parent="1">
          <mxGeometry x="-205" y="1240" width="100" height="40" as="geometry" />
        </mxCell>
        <mxCell id="HmJOOrPuTASxMkyBcTtv-65" value="timestamp" style="ellipse;whiteSpace=wrap;html=1;align=center;fontSize=14;" vertex="1" parent="1">
          <mxGeometry x="-205" y="1420" width="130" height="40" as="geometry" />
        </mxCell>
        <mxCell id="HmJOOrPuTASxMkyBcTtv-66" value="activity" style="ellipse;whiteSpace=wrap;html=1;align=center;fontSize=14;" vertex="1" parent="1">
          <mxGeometry x="20" y="1347" width="100" height="40" as="geometry" />
        </mxCell>
        <mxCell id="HmJOOrPuTASxMkyBcTtv-67" style="edgeStyle=orthogonalEdgeStyle;rounded=0;orthogonalLoop=1;jettySize=auto;html=1;exitX=0.75;exitY=0;exitDx=0;exitDy=0;entryX=0.5;entryY=1;entryDx=0;entryDy=0;fontSize=14;" edge="1" parent="1" source="HmJOOrPuTASxMkyBcTtv-63" target="HmJOOrPuTASxMkyBcTtv-69">
          <mxGeometry relative="1" as="geometry">
            <mxPoint x="-93" y="1307" as="targetPoint" />
          </mxGeometry>
        </mxCell>
        <mxCell id="HmJOOrPuTASxMkyBcTtv-68" style="edgeStyle=orthogonalEdgeStyle;rounded=0;orthogonalLoop=1;jettySize=auto;html=1;exitX=0.25;exitY=0;exitDx=0;exitDy=0;entryX=0.5;entryY=1;entryDx=0;entryDy=0;fontSize=14;" edge="1" parent="1" source="HmJOOrPuTASxMkyBcTtv-63" target="HmJOOrPuTASxMkyBcTtv-64">
          <mxGeometry relative="1" as="geometry" />
        </mxCell>
        <mxCell id="HmJOOrPuTASxMkyBcTtv-69" value="log_id" style="ellipse;whiteSpace=wrap;html=1;align=center;fontStyle=4;fontSize=14;" vertex="1" parent="1">
          <mxGeometry x="-100" y="1275" width="120" height="40" as="geometry" />
        </mxCell>
        <mxCell id="HmJOOrPuTASxMkyBcTtv-70" value="logs_activity" style="shape=rhombus;perimeter=rhombusPerimeter;whiteSpace=wrap;html=1;align=center;fontSize=14;" vertex="1" parent="1">
          <mxGeometry x="-10" y="1485" width="120" height="55" as="geometry" />
        </mxCell>
        <mxCell id="HmJOOrPuTASxMkyBcTtv-71" value="" style="endArrow=none;html=1;rounded=0;exitX=0;exitY=0.5;exitDx=0;exitDy=0;shape=link;entryX=0.75;entryY=1;entryDx=0;entryDy=0;fontSize=14;" edge="1" parent="1" source="HmJOOrPuTASxMkyBcTtv-70" target="HmJOOrPuTASxMkyBcTtv-63">
          <mxGeometry relative="1" as="geometry">
            <mxPoint x="-95" y="1595" as="sourcePoint" />
            <mxPoint x="-25" y="1420" as="targetPoint" />
          </mxGeometry>
        </mxCell>
        <mxCell id="HmJOOrPuTASxMkyBcTtv-72" value="" style="endArrow=none;html=1;rounded=0;entryX=1;entryY=0.5;entryDx=0;entryDy=0;exitX=0;exitY=0;exitDx=0;exitDy=0;fontSize=14;" edge="1" parent="1" source="zhDVDcsRZHDaqXmxdzjK-84" target="HmJOOrPuTASxMkyBcTtv-70">
          <mxGeometry relative="1" as="geometry">
            <mxPoint x="540" y="1290" as="sourcePoint" />
            <mxPoint x="350" y="1465" as="targetPoint" />
          </mxGeometry>
        </mxCell>
        <mxCell id="HmJOOrPuTASxMkyBcTtv-73" value="&lt;font&gt;1&lt;/font&gt;" style="edgeLabel;html=1;align=center;verticalAlign=middle;resizable=0;points=[];fontSize=14;" vertex="1" connectable="0" parent="1">
          <mxGeometry x="179.99810641803884" y="1589.9971338312544" as="geometry">
            <mxPoint x="-81" y="-61" as="offset" />
          </mxGeometry>
        </mxCell>
        <mxCell id="HmJOOrPuTASxMkyBcTtv-74" value="N" style="edgeLabel;html=1;align=center;verticalAlign=middle;resizable=0;points=[];fontSize=14;" vertex="1" connectable="0" parent="1">
          <mxGeometry x="79.99810641803884" y="1539.9971338312544" as="geometry">
            <mxPoint x="-81" y="-61" as="offset" />
          </mxGeometry>
        </mxCell>
        <mxCell id="HmJOOrPuTASxMkyBcTtv-75" value="logs_changes" style="shape=rhombus;perimeter=rhombusPerimeter;whiteSpace=wrap;html=1;align=center;fontSize=14;" vertex="1" parent="1">
          <mxGeometry x="-440" y="1275" width="130" height="55" as="geometry" />
        </mxCell>
        <mxCell id="HmJOOrPuTASxMkyBcTtv-76" value="N" style="edgeLabel;html=1;align=center;verticalAlign=middle;resizable=0;points=[];fontSize=14;" vertex="1" connectable="0" parent="1">
          <mxGeometry x="-230.0018935819612" y="1339.9971338312544" as="geometry">
            <mxPoint x="-81" y="-61" as="offset" />
          </mxGeometry>
        </mxCell>
        <mxCell id="HmJOOrPuTASxMkyBcTtv-77" value="&lt;font&gt;1&lt;/font&gt;" style="edgeLabel;html=1;align=center;verticalAlign=middle;resizable=0;points=[];fontSize=14;" vertex="1" connectable="0" parent="1">
          <mxGeometry x="-340.0018935819612" y="1329.9971338312544" as="geometry">
            <mxPoint x="-81" y="-61" as="offset" />
          </mxGeometry>
        </mxCell>
        <mxCell id="HmJOOrPuTASxMkyBcTtv-78" value="" style="endArrow=none;html=1;rounded=0;exitX=0;exitY=0.5;exitDx=0;exitDy=0;shape=link;entryX=1;entryY=0.5;entryDx=0;entryDy=0;fontSize=14;" edge="1" parent="1" source="HmJOOrPuTASxMkyBcTtv-63" target="HmJOOrPuTASxMkyBcTtv-75">
          <mxGeometry relative="1" as="geometry">
            <mxPoint y="1523" as="sourcePoint" />
            <mxPoint x="-42" y="1395" as="targetPoint" />
          </mxGeometry>
        </mxCell>
        <mxCell id="HmJOOrPuTASxMkyBcTtv-79" value="" style="endArrow=none;html=1;rounded=0;entryX=1;entryY=1;entryDx=0;entryDy=0;exitX=0;exitY=0.5;exitDx=0;exitDy=0;fontSize=14;" edge="1" parent="1" source="HmJOOrPuTASxMkyBcTtv-75" target="zhDVDcsRZHDaqXmxdzjK-24">
          <mxGeometry relative="1" as="geometry">
            <mxPoint x="-500" y="1353.5" as="sourcePoint" />
            <mxPoint x="-520" y="1236.5" as="targetPoint" />
          </mxGeometry>
        </mxCell>
        <mxCell id="HmJOOrPuTASxMkyBcTtv-80" value="status" style="ellipse;whiteSpace=wrap;html=1;align=center;fontSize=14;" vertex="1" parent="1">
          <mxGeometry x="-645" y="1560" width="100" height="40" as="geometry" />
        </mxCell>
        <mxCell id="HmJOOrPuTASxMkyBcTtv-83" style="edgeStyle=orthogonalEdgeStyle;rounded=0;orthogonalLoop=1;jettySize=auto;html=1;exitX=0;exitY=1;exitDx=0;exitDy=0;entryX=0.75;entryY=0;entryDx=0;entryDy=0;" edge="1" parent="1" source="HmJOOrPuTASxMkyBcTtv-82" target="zhDVDcsRZHDaqXmxdzjK-35">
          <mxGeometry relative="1" as="geometry" />
        </mxCell>
        <mxCell id="HmJOOrPuTASxMkyBcTtv-82" value="fee" style="ellipse;whiteSpace=wrap;html=1;align=center;fontSize=14;" vertex="1" parent="1">
          <mxGeometry x="-832.5" y="680" width="72.5" height="40" as="geometry" />
        </mxCell>
      </root>
    </mxGraphModel>
  </diagram>
</mxfile>
